<?xml version="1.0" standalone="no"?>
<!DOCTYPE svg PUBLIC "-//W3C//DTD SVG 20010904//EN"
 "http://www.w3.org/TR/2001/REC-SVG-20010904/DTD/svg10.dtd">
<svg version="1.0" xmlns="http://www.w3.org/2000/svg"
 width="640.000000pt" height="844.000000pt" viewBox="0 0 640.000000 844.000000"
 preserveAspectRatio="xMidYMid meet">
<metadata>
Created by potrace 1.16, written by Peter Selinger 2001-2019
</metadata>
<g transform="translate(0.000000,844.000000) scale(0.100000,-0.100000)"
fill="#000000" stroke="none">
<path d="M4010 8090 c0 -93 1 -100 20 -100 11 0 20 5 20 10 0 7 7 7 21 0 54
-29 106 37 77 97 -12 24 -19 28 -56 27 -41 -1 -42 0 -42 33 0 26 -4 33 -20 33
-19 0 -20 -7 -20 -100z"/>
<path d="M394 8173 c-9 -7 -64 -157 -64 -176 0 -17 42 -6 47 13 4 15 14 20 38
20 24 0 34 -5 38 -20 7 -25 47 -28 46 -2 0 9 -13 51 -28 92 -26 74 -47 94 -77
73z"/>
<path d="M1393 8168 c-47 -23 -53 -118 -10 -158 42 -39 137 -13 137 37 0 18
-39 16 -46 -2 -8 -20 -60 -19 -68 1 -10 26 -7 69 6 82 17 17 55 15 62 -3 6
-17 46 -21 46 -5 0 6 -11 22 -25 35 -26 27 -64 31 -102 13z"/>
<path d="M2996 8168 c-3 -7 -16 -46 -30 -86 -14 -40 -26 -77 -26 -83 0 -18 42
-9 47 11 4 15 14 20 38 20 24 0 34 -5 38 -20 6 -22 47 -28 47 -7 0 8 -13 49
-28 93 -25 70 -32 79 -55 82 -16 2 -29 -2 -31 -10z"/>
<path d="M4555 8170 c-4 -6 -19 -48 -35 -95 l-29 -85 23 0 c15 0 26 7 29 20 4
15 14 20 37 20 23 0 33 -5 37 -20 4 -13 14 -20 30 -20 16 0 23 5 21 13 -3 6
-17 49 -32 95 -24 72 -31 82 -51 82 -13 0 -27 -5 -30 -10z"/>
<path d="M860 8130 c-8 -5 -27 -6 -42 -3 l-28 6 0 -72 c0 -64 2 -71 20 -71 17
0 20 7 20 39 0 48 8 71 25 71 17 0 25 -23 25 -71 0 -32 3 -39 19 -39 17 0 20
8 23 53 2 38 7 52 18 52 11 0 16 -14 18 -53 3 -48 5 -53 25 -50 18 2 23 11 25
42 7 80 -26 123 -71 93 -19 -12 -25 -12 -42 -1 -13 8 -25 10 -35 4z"/>
<path d="M1073 8130 c-13 -5 -23 -16 -23 -25 0 -13 7 -15 35 -9 48 9 45 -10
-5 -25 -32 -9 -40 -17 -40 -35 0 -33 17 -43 78 -43 l52 -1 0 58 c0 34 -5 62
-13 68 -19 16 -60 22 -84 12z"/>
<path d="M1720 8133 c-51 -19 -68 -85 -30 -123 45 -45 120 -11 120 53 0 47
-49 85 -90 70z"/>
<path d="M2410 8111 c-14 -27 -13 -74 4 -96 10 -14 21 -17 50 -12 32 5 37 3
34 -11 -3 -14 -13 -16 -53 -14 l-49 3 18 -20 c13 -14 31 -21 57 -21 58 0 69
18 69 111 0 72 -2 79 -20 79 -11 0 -20 -5 -20 -12 0 -9 -3 -9 -12 0 -19 19
-66 15 -78 -7z"/>
<path d="M1810 7380 c0 -93 1 -100 20 -100 11 0 20 5 20 12 0 9 3 9 12 0 34
-34 88 4 88 63 0 49 -20 69 -64 62 -36 -6 -36 -5 -36 29 0 27 -4 34 -20 34
-19 0 -20 -7 -20 -100z"/>
<path d="M372 7458 c-26 -13 -47 -75 -38 -112 16 -63 103 -90 146 -44 11 12
20 28 20 35 0 20 -33 16 -53 -7 -29 -34 -67 -9 -67 46 0 49 42 73 70 39 14
-17 50 -20 50 -5 0 6 -11 22 -25 35 -26 27 -64 31 -103 13z"/>
<path d="M580 7423 c-51 -19 -68 -85 -30 -123 45 -45 120 -11 120 53 0 47 -49
85 -90 70z"/>
<path d="M2848 7422 c-10 -2 -18 -8 -18 -14 0 -7 -4 -7 -13 0 -7 6 -38 11 -70
11 l-57 0 0 -70 c0 -67 1 -69 24 -69 23 0 25 4 28 52 2 41 7 54 21 56 14 3 17
-5 17 -52 0 -49 2 -56 20 -56 17 0 20 7 20 39 0 48 8 71 25 71 17 0 25 -23 25
-71 0 -32 3 -39 20 -39 18 0 20 7 20 58 0 74 -16 95 -62 84z"/>
<path d="M4050 7420 c-25 -6 -50 -41 -50 -71 0 -9 9 -28 21 -43 54 -68 155 4
115 82 -16 31 -45 42 -86 32z"/>
<path d="M4532 7414 c-12 -8 -22 -11 -22 -5 0 6 -9 11 -20 11 -18 0 -20 -7
-20 -70 0 -63 2 -70 20 -70 17 0 20 7 20 39 0 48 8 71 25 71 17 0 25 -23 25
-71 0 -32 3 -39 19 -39 17 0 20 8 23 52 2 41 7 54 21 56 14 3 17 -5 17 -52 0
-53 1 -56 25 -56 24 0 25 3 25 55 0 41 -5 60 -19 74 -19 19 -55 19 -67 0 -3
-5 -15 -2 -28 6 -19 13 -25 13 -44 -1z"/>
<path d="M5080 7422 c-51 -16 -68 -84 -30 -122 45 -45 120 -11 120 53 0 47
-47 83 -90 69z"/>
<path d="M1570 7400 c-15 -27 -12 -86 4 -99 17 -14 44 -17 70 -6 14 6 17 4 14
-11 -3 -16 -11 -19 -53 -16 l-49 3 18 -20 c25 -27 86 -28 109 -3 13 14 17 38
17 94 l0 75 -60 1 c-49 1 -62 -3 -70 -18z"/>
<path d="M3010 7337 c0 -45 4 -88 9 -96 15 -24 41 -5 41 31 0 25 3 29 12 20
34 -34 88 4 88 64 0 46 -25 63 -92 63 l-58 0 0 -82z"/>
<path d="M3782 7407 c-43 -54 3 -147 58 -117 17 9 20 8 20 -11 0 -20 -4 -21
-45 -15 -48 8 -61 -5 -26 -24 31 -16 79 -12 101 10 16 16 20 33 20 94 l0 74
-59 1 c-35 0 -63 -5 -69 -12z"/>
<path d="M517 7113 c-3 -10 -4 -36 -2 -58 1 -22 3 -59 4 -82 1 -35 4 -43 20
-43 17 0 20 8 23 53 3 44 6 52 23 52 17 0 20 -8 23 -52 3 -45 6 -53 23 -53 17
0 19 7 19 65 0 59 -2 67 -22 74 -13 5 -33 5 -45 0 -21 -8 -23 -6 -23 26 0 28
-4 35 -19 35 -11 0 -22 -8 -24 -17z"/>
<path d="M3709 7118 c-1 -7 0 -23 0 -35 2 -19 -1 -21 -37 -16 -35 5 -42 2 -57
-21 -36 -55 15 -140 65 -108 12 7 21 8 25 2 3 -6 15 -10 26 -10 18 0 19 8 19
100 0 93 -1 100 -20 100 -11 0 -20 -6 -21 -12z"/>
<path d="M938 7069 c-10 -5 -18 -17 -18 -25 0 -12 7 -14 30 -9 47 10 61 -8 16
-20 -47 -14 -66 -37 -50 -62 8 -13 26 -18 68 -20 l56 -1 0 58 c0 49 -4 61 -22
74 -26 18 -55 20 -80 5z"/>
<path d="M1141 7064 c-12 -9 -21 -11 -21 -5 0 6 -9 11 -20 11 -20 0 -21 -5
-18 -92 3 -79 6 -93 21 -96 14 -3 17 4 17 32 0 35 12 47 25 26 9 -15 42 -12
59 6 9 8 16 32 16 53 0 60 -39 92 -79 65z"/>
<path d="M1336 7073 c-3 -4 -24 -6 -46 -5 l-40 2 0 -89 c0 -72 3 -90 16 -95
24 -9 34 2 34 36 0 25 2 28 14 18 42 -34 94 18 82 82 -6 33 -45 66 -60 51z"/>
<path d="M2177 7060 c-53 -42 -24 -130 43 -130 40 0 70 31 70 73 0 61 -66 94
-113 57z"/>
<path d="M2506 7059 c-52 -41 -23 -129 44 -129 67 0 96 88 44 129 -15 12 -34
21 -44 21 -10 0 -29 -9 -44 -21z"/>
<path d="M5398 7065 c-27 -15 -33 -33 -28 -80 5 -53 79 -75 115 -35 23 25 25
84 5 104 -23 23 -62 27 -92 11z"/>
<path d="M3852 6976 c2 -73 6 -91 18 -91 10 0 16 12 18 33 3 32 15 41 27 22 9
-15 42 -12 59 6 19 19 21 97 3 112 -6 6 -38 10 -70 10 l-58 -1 3 -91z"/>
<path d="M450 6680 c0 -93 1 -100 20 -100 16 0 20 7 20 38 0 43 23 83 39 67 5
-5 11 -30 13 -55 3 -38 7 -46 26 -48 21 -3 22 0 22 52 0 70 -24 102 -65 86
-36 -14 -35 -14 -35 25 0 28 -4 35 -20 35 -19 0 -20 -7 -20 -100z"/>
<path d="M2069 6753 c-2 -31 -2 -141 0 -160 1 -7 10 -13 20 -13 17 0 20 8 23
53 3 44 6 52 23 52 17 0 20 -8 23 -52 3 -45 6 -53 23 -53 17 0 19 7 19 58 0
31 -4 62 -8 68 -13 19 -39 23 -61 8 -20 -15 -21 -14 -21 25 0 34 -3 41 -20 41
-15 0 -20 -7 -21 -27z"/>
<path d="M3080 6746 c0 -34 0 -35 -36 -29 -29 5 -40 2 -50 -12 -20 -27 -17
-79 5 -106 17 -22 22 -23 50 -12 17 6 31 7 31 2 0 -5 9 -9 20 -9 19 0 20 7 20
100 0 93 -1 100 -20 100 -16 0 -20 -7 -20 -34z"/>
<path d="M3320 6746 c0 -34 0 -35 -36 -29 -45 7 -64 -13 -64 -67 0 -52 30 -78
71 -63 16 6 29 7 29 2 0 -5 9 -9 20 -9 19 0 20 7 20 100 0 93 -1 100 -20 100
-16 0 -20 -7 -20 -34z"/>
<path d="M4157 6773 c-4 -3 -7 -18 -7 -32 0 -23 -4 -26 -37 -26 -29 0 -40 -5
-52 -26 -14 -25 -11 -59 8 -89 7 -9 30 -15 70 -16 l61 -3 0 100 c0 89 -2 99
-18 99 -10 0 -22 -3 -25 -7z"/>
<path d="M1240 6720 c-8 -5 -27 -6 -42 -3 l-28 6 0 -72 c0 -64 2 -71 20 -71
17 0 20 7 20 39 0 48 8 71 25 71 17 0 25 -23 25 -71 0 -32 3 -39 19 -39 17 0
20 8 23 52 2 41 7 54 21 56 14 3 17 -5 17 -53 0 -53 1 -56 23 -53 18 2 23 10
25 42 7 80 -26 123 -71 93 -19 -12 -25 -12 -42 -1 -13 8 -25 10 -35 4z"/>
<path d="M2272 6720 c-31 -13 -45 -55 -32 -96 6 -18 18 -35 26 -38 22 -8 67
-7 81 2 30 19 36 99 9 121 -18 15 -59 21 -84 11z"/>
<path d="M3520 6723 c-24 -8 -40 -35 -40 -68 0 -49 20 -68 64 -63 29 3 36 1
34 -11 -3 -13 -15 -15 -53 -13 l-49 3 18 -20 c25 -27 86 -28 109 -3 13 14 17
38 17 95 0 70 -2 77 -20 77 -11 0 -20 -5 -20 -10 0 -6 -10 -4 -22 4 -13 7 -30
11 -38 9z"/>
<path d="M3753 6720 c-13 -5 -23 -16 -23 -25 0 -17 13 -19 40 -5 12 7 21 6 29
-3 8 -10 0 -16 -34 -25 -37 -10 -45 -16 -45 -36 0 -33 17 -43 78 -43 l52 -1 0
59 c0 48 -4 60 -22 73 -25 18 -42 19 -75 6z"/>
<path d="M2410 6625 c0 -88 1 -95 20 -95 16 0 20 7 20 35 0 32 2 35 19 25 48
-25 81 1 81 64 0 48 -13 66 -50 66 -14 0 -31 -5 -38 -12 -9 -9 -12 -9 -12 0 0
7 -9 12 -20 12 -19 0 -20 -7 -20 -95z"/>
<path d="M4440 6718 c1 -2 9 -32 18 -68 15 -57 20 -65 42 -65 20 0 26 7 36 45
l11 45 14 -47 c11 -39 17 -48 36 -48 23 0 31 19 49 108 6 27 4 32 -13 32 -15
0 -22 -10 -30 -42 -10 -43 -15 -40 -27 15 -5 20 -12 27 -30 27 -20 0 -24 -6
-30 -42 -5 -32 -9 -39 -16 -28 -5 8 -10 27 -10 43 0 22 -4 27 -25 27 -14 0
-25 -1 -25 -2z"/>
<path d="M4945 6697 c-19 -28 -19 -57 1 -86 13 -18 24 -22 50 -19 28 3 34 1
34 -15 0 -17 -5 -19 -45 -13 -25 4 -45 3 -45 -1 0 -36 87 -46 120 -13 16 16
20 33 20 94 l0 73 -60 1 c-50 1 -62 -2 -75 -21z"/>
<path d="M835 6337 c-19 -28 -19 -57 1 -86 13 -18 24 -22 50 -19 28 3 34 1 34
-15 0 -17 -5 -19 -45 -13 -48 8 -61 -5 -26 -24 31 -16 79 -12 101 10 16 16 20
33 20 94 l0 74 -60 1 c-50 0 -62 -4 -75 -22z"/>
<path d="M1890 5969 c0 -98 0 -100 23 -97 18 2 22 9 23 44 1 46 9 64 30 64 10
0 14 -14 14 -55 0 -52 1 -55 25 -55 24 0 25 3 25 53 0 71 -16 92 -64 84 -36
-6 -36 -5 -36 29 0 27 -4 34 -20 34 -19 0 -20 -7 -20 -101z"/>
<path d="M2137 6063 c-4 -3 -7 -48 -7 -100 0 -86 1 -93 20 -93 11 0 20 5 20
10 0 7 7 7 21 0 54 -29 106 37 77 97 -12 24 -19 28 -56 27 -41 -1 -42 0 -42
33 0 31 -16 44 -33 26z"/>
<path d="M4630 5970 c0 -92 1 -100 19 -100 17 0 20 8 23 53 3 44 6 52 23 52
17 0 20 -8 23 -52 3 -45 6 -53 23 -53 18 0 20 6 17 68 l-3 67 -43 0 c-41 0
-42 1 -42 33 0 25 -4 32 -20 32 -19 0 -20 -7 -20 -100z"/>
<path d="M5210 5970 c0 -92 1 -100 19 -100 17 0 20 8 23 53 3 44 6 52 23 52
17 0 20 -8 23 -52 3 -45 6 -53 23 -53 18 0 20 6 17 68 l-3 67 -43 0 c-41 0
-42 1 -42 33 0 25 -4 32 -20 32 -19 0 -20 -7 -20 -100z"/>
<path d="M530 6010 c-25 -6 -50 -41 -50 -71 0 -32 40 -69 74 -69 55 0 85 50
62 104 -15 35 -42 47 -86 36z"/>
<path d="M870 6003 c-15 -11 -24 -12 -29 -5 -3 6 -30 11 -59 10 l-52 0 0 -59
c0 -32 0 -62 0 -66 -1 -5 8 -9 19 -11 17 -3 20 3 23 50 2 41 7 54 21 56 14 3
17 -5 17 -52 0 -49 2 -56 20 -56 17 0 20 7 20 43 0 50 12 72 34 64 12 -5 16
-20 16 -57 0 -43 3 -50 20 -50 18 0 20 7 20 58 0 31 -4 62 -8 68 -13 20 -40
23 -62 7z"/>
<path d="M2862 6005 c-33 -15 -46 -53 -30 -94 12 -32 25 -41 64 -41 53 0 82
51 60 104 -16 39 -49 49 -94 31z"/>
<path d="M5420 6010 c-25 -6 -50 -41 -50 -71 0 -9 9 -28 21 -43 43 -55 124
-22 122 50 -2 55 -34 78 -93 64z"/>
<path d="M3960 5991 c-21 -40 -8 -102 25 -115 8 -3 27 -1 41 4 22 9 25 8 22
-7 -3 -14 -12 -17 -46 -15 -23 1 -42 -1 -42 -6 0 -34 86 -44 113 -14 13 14 17
38 17 95 0 70 -2 77 -20 77 -11 0 -20 -5 -20 -12 0 -9 -3 -9 -12 0 -19 19 -66
15 -78 -7z"/>
<path d="M5032 5918 c3 -79 6 -93 21 -96 14 -3 17 4 17 33 0 32 2 35 19 25 48
-25 81 1 81 64 0 48 -13 66 -50 66 -14 0 -31 -5 -38 -12 -9 -9 -12 -9 -12 0 0
7 -9 12 -20 12 -20 0 -21 -5 -18 -92z"/>
<path d="M2248 5688 c-3 -31 -5 -33 -40 -30 -30 3 -40 -1 -53 -22 -37 -56 14
-140 65 -108 12 7 21 8 25 2 3 -6 15 -10 26 -10 18 0 20 6 17 97 -3 82 -6 98
-20 101 -12 2 -17 -5 -20 -30z"/>
<path d="M2417 5713 c-4 -3 -7 -48 -7 -100 0 -85 2 -93 19 -93 11 0 21 6 24
13 4 10 7 10 18 0 34 -33 84 6 82 63 -1 50 -19 67 -65 61 -38 -5 -38 -5 -38
29 0 32 -16 45 -33 27z"/>
<path d="M4017 5713 c-4 -3 -7 -48 -7 -100 0 -86 1 -93 20 -93 17 0 20 7 20
43 0 43 13 67 36 67 8 0 14 -19 16 -52 3 -46 6 -53 26 -56 20 -3 22 0 22 50 0
72 -16 93 -64 85 -36 -6 -36 -5 -36 29 0 32 -16 45 -33 27z"/>
<path d="M1835 5700 c-10 -16 -55 -152 -55 -167 0 -21 37 -15 43 7 4 14 14 20
35 20 22 0 32 -6 37 -20 4 -13 15 -20 32 -20 16 0 23 5 21 13 -3 6 -17 49 -32
95 -24 72 -31 82 -51 82 -13 0 -27 -5 -30 -10z"/>
<path d="M3142 5654 c-12 -8 -23 -10 -27 -5 -3 6 -33 10 -66 10 l-60 -1 3 -66
c3 -60 5 -67 25 -70 20 -3 22 2 25 50 2 39 7 53 18 53 11 0 16 -14 18 -52 3
-45 6 -53 23 -53 16 0 19 7 19 39 0 48 8 71 25 71 17 0 25 -23 25 -71 0 -32 3
-39 20 -39 18 0 20 7 20 58 0 31 -4 62 -8 68 -13 19 -39 23 -60 8z"/>
<path d="M3622 5654 c-12 -8 -23 -10 -27 -5 -3 6 -33 10 -66 10 l-60 -1 3 -66
c3 -60 5 -67 25 -70 20 -3 22 2 25 50 2 39 7 53 18 53 11 0 16 -14 18 -52 3
-45 6 -53 23 -53 16 0 19 7 19 39 0 48 8 71 25 71 17 0 25 -23 25 -71 0 -32 3
-39 20 -39 18 0 20 7 20 58 0 31 -4 62 -8 68 -13 19 -39 23 -60 8z"/>
<path d="M3769 5658 c-25 -8 -49 -44 -49 -72 0 -7 9 -25 21 -40 51 -64 145 -6
118 73 -12 35 -52 52 -90 39z"/>
<path d="M4885 5662 c-54 -11 -75 -82 -35 -122 45 -45 120 -11 120 53 0 47
-39 79 -85 69z"/>
<path d="M1020 5640 c-14 -26 -13 -73 3 -94 14 -19 42 -23 71 -11 14 6 17 4
14 -11 -3 -16 -11 -19 -53 -16 l-49 3 18 -20 c25 -27 86 -28 109 -3 13 14 17
38 17 94 l0 75 -60 1 c-49 1 -62 -3 -70 -18z"/>
<path d="M1456 5644 c-19 -19 -21 -73 -3 -98 14 -19 42 -23 71 -11 14 6 17 4
14 -11 -3 -16 -11 -19 -46 -16 -31 2 -42 -1 -42 -12 0 -30 87 -37 113 -8 13
14 17 38 17 95 0 70 -2 77 -20 77 -11 0 -20 -5 -20 -12 0 -9 -3 -9 -12 0 -17
17 -54 15 -72 -4z"/>
<path d="M4540 5640 c-17 -31 -12 -78 11 -101 11 -11 26 -18 32 -16 49 20 49
20 45 1 -3 -16 -11 -19 -46 -16 -23 1 -42 -1 -42 -6 0 -34 86 -44 113 -14 13
14 17 38 17 94 l0 75 -60 1 c-49 1 -62 -3 -70 -18z"/>
<path d="M767 5354 c-4 -4 -7 -19 -7 -33 0 -23 -4 -26 -37 -26 -31 0 -40 -5
-50 -26 -29 -59 19 -131 67 -101 12 7 21 8 25 2 3 -6 15 -10 26 -10 18 0 20 6
17 97 -2 79 -6 98 -18 101 -9 1 -19 0 -23 -4z"/>
<path d="M1670 5326 c0 -34 0 -35 -36 -29 -45 7 -64 -13 -64 -67 0 -56 54 -92
88 -58 9 9 12 9 12 0 0 -7 9 -12 20 -12 19 0 20 7 20 100 0 93 -1 100 -20 100
-16 0 -20 -7 -20 -34z"/>
<path d="M3037 5353 c-4 -3 -7 -48 -7 -100 0 -86 1 -93 20 -93 21 0 23 7 21
50 -1 14 5 34 14 45 l15 20 16 -20 c9 -12 14 -34 12 -55 -3 -30 0 -35 20 -38
20 -3 22 0 22 50 0 72 -16 93 -64 85 -36 -6 -36 -5 -36 29 0 32 -16 45 -33 27z"/>
<path d="M495 5302 c-3 -4 -40 -7 -82 -7 l-75 0 0 -65 c0 -58 2 -65 20 -68 19
-3 21 3 24 50 2 41 7 54 21 56 14 3 17 -5 17 -52 0 -49 2 -56 20 -56 17 0 20
7 20 43 0 50 12 72 34 64 12 -5 16 -20 16 -57 0 -43 3 -50 20 -50 18 0 20 7
20 58 0 31 -4 62 -8 68 -10 14 -38 24 -47 16z"/>
<path d="M1012 5295 c-67 -29 -41 -135 33 -135 55 0 87 58 61 108 -18 35 -52
44 -94 27z"/>
<path d="M1800 5303 c-51 -19 -68 -85 -30 -123 45 -45 120 -11 120 53 0 47
-49 85 -90 70z"/>
<path d="M3340 5300 c-8 -5 -27 -6 -42 -3 l-28 6 0 -72 c0 -64 2 -71 20 -71
17 0 20 7 20 39 0 48 8 71 25 71 17 0 25 -23 25 -71 0 -32 3 -39 19 -39 17 0
20 8 23 52 2 41 7 54 21 56 14 3 17 -5 17 -53 0 -53 1 -56 23 -53 18 2 23 10
25 42 7 79 -21 117 -69 92 -19 -10 -28 -10 -44 0 -13 8 -26 10 -35 4z"/>
<path d="M4501 5301 c-7 -5 -47 -6 -88 -4 -75 4 -76 4 -69 -19 3 -13 6 -44 6
-70 0 -41 3 -48 19 -48 17 0 20 8 23 53 2 38 7 52 18 52 11 0 16 -14 18 -52 3
-45 6 -53 23 -53 16 0 19 7 19 43 0 50 12 72 34 64 12 -5 16 -20 16 -57 0 -43
3 -50 20 -50 18 0 20 7 20 58 0 31 -4 62 -8 68 -11 16 -37 23 -51 15z"/>
<path d="M4630 5298 c-31 -12 -40 -25 -40 -65 0 -42 30 -73 70 -73 40 0 70 31
70 73 0 52 -49 84 -100 65z"/>
<path d="M4912 5294 c-12 -8 -23 -10 -27 -5 -3 6 -33 10 -66 10 l-60 -1 3 -66
c3 -60 5 -67 25 -70 20 -3 22 2 25 50 2 41 7 54 21 56 14 3 17 -5 17 -52 0
-49 2 -56 20 -56 17 0 20 7 20 39 0 48 8 71 25 71 17 0 25 -23 25 -71 0 -32 3
-39 20 -39 18 0 20 7 20 58 0 31 -4 62 -8 68 -13 19 -39 23 -60 8z"/>
<path d="M2556 5275 c24 -95 31 -110 55 -110 19 0 25 8 35 45 l11 45 13 -47
c10 -40 16 -48 36 -48 24 0 32 18 50 108 6 27 4 32 -13 32 -15 0 -22 -10 -30
-42 -10 -43 -15 -40 -27 15 -7 28 -43 39 -50 15 -2 -7 -8 -29 -13 -48 l-10
-35 -9 45 c-8 36 -14 46 -32 48 -20 3 -22 0 -16 -23z"/>
<path d="M1200 4909 c0 -98 0 -100 23 -97 17 2 21 9 19 29 -4 34 15 82 31 77
6 -3 14 -27 17 -54 4 -41 8 -49 28 -52 21 -3 22 0 22 52 0 43 -5 61 -21 77
-11 11 -27 18 -35 15 -8 -3 -21 -9 -29 -12 -12 -5 -15 2 -15 30 0 29 -4 36
-20 36 -19 0 -20 -7 -20 -101z"/>
<path d="M1030 4931 c-14 -27 -13 -74 4 -96 10 -14 21 -17 50 -12 32 5 37 3
34 -11 -3 -14 -13 -16 -51 -14 -26 2 -47 1 -47 -2 0 -17 37 -36 70 -36 59 0
70 18 70 111 0 72 -2 79 -20 79 -11 0 -20 -5 -20 -12 0 -9 -3 -9 -12 0 -19 19
-66 15 -78 -7z"/>
<path d="M4947 4653 c-4 -3 -7 -18 -7 -32 0 -23 -4 -26 -37 -26 -31 0 -40 -5
-50 -26 -29 -59 19 -131 67 -101 12 7 21 8 25 2 3 -6 15 -10 26 -10 18 0 19 8
19 100 0 90 -2 100 -18 100 -10 0 -22 -3 -25 -7z"/>
<path d="M1020 4600 c-8 -5 -27 -6 -42 -3 l-28 6 0 -72 c0 -64 2 -71 20 -71
17 0 20 7 20 39 0 48 8 71 25 71 17 0 25 -23 25 -71 0 -32 3 -39 19 -39 17 0
20 8 23 52 2 41 7 54 21 56 14 3 17 -5 17 -52 0 -53 1 -56 25 -56 23 0 25 3
25 51 0 66 -13 89 -50 89 -16 0 -32 -4 -35 -10 -4 -6 -14 -4 -28 5 -14 9 -27
11 -37 5z"/>
<path d="M1998 4602 c-10 -2 -18 -8 -18 -14 0 -7 -4 -7 -13 0 -7 6 -38 11 -70
11 l-57 0 0 -70 c0 -67 1 -69 24 -69 23 0 25 4 28 53 2 38 7 52 18 52 11 0 16
-14 18 -52 3 -45 6 -53 23 -53 16 0 19 7 19 39 0 48 8 71 25 71 17 0 25 -23
25 -71 0 -32 3 -39 20 -39 18 0 20 7 20 58 0 74 -16 95 -62 84z"/>
<path d="M2130 4601 c-14 -4 -26 -15 -28 -25 -3 -15 1 -16 32 -10 50 9 47 -12
-4 -26 -32 -9 -40 -15 -40 -34 0 -34 18 -44 78 -44 l52 0 0 58 c0 34 -5 62
-12 68 -20 15 -51 20 -78 13z"/>
<path d="M2723 4599 c-44 -16 -57 -85 -23 -119 45 -45 120 -11 120 53 0 51
-49 84 -97 66z"/>
<path d="M3804 4595 c-12 -8 -23 -10 -30 -4 -6 5 -35 8 -65 6 l-54 -2 0 -65
c0 -59 2 -65 22 -68 20 -3 22 2 25 50 2 41 7 54 21 56 14 3 17 -5 17 -52 0
-49 2 -56 20 -56 17 0 20 7 20 39 0 48 8 71 25 71 17 0 25 -23 25 -71 0 -32 3
-39 20 -39 18 0 20 7 20 58 0 31 -4 62 -8 68 -13 19 -40 23 -58 9z"/>
<path d="M3953 4602 c-30 -5 -45 -26 -46 -66 -3 -92 116 -106 137 -16 12 51
-32 92 -91 82z"/>
<path d="M4228 4602 c-10 -2 -18 -8 -18 -14 0 -7 -4 -7 -13 0 -7 6 -38 11 -70
11 l-57 0 0 -70 c0 -67 1 -69 24 -69 23 0 25 4 28 52 2 41 7 54 21 56 14 3 17
-5 17 -52 0 -49 2 -56 20 -56 17 0 20 7 20 39 0 48 8 71 25 71 17 0 25 -23 25
-71 0 -32 3 -39 20 -39 18 0 20 7 20 58 0 74 -16 95 -62 84z"/>
<path d="M330 4588 c0 -6 7 -38 16 -70 14 -49 20 -58 40 -58 19 0 24 7 30 38
10 58 17 61 29 12 9 -37 15 -46 36 -48 24 -3 27 2 39 55 7 32 15 64 18 71 3
10 -2 13 -19 10 -17 -2 -25 -11 -30 -36 -10 -49 -18 -50 -25 -3 -6 35 -10 41
-30 41 -18 0 -25 -7 -30 -27 -12 -55 -17 -58 -26 -15 -7 32 -14 42 -29 42 -10
0 -19 -5 -19 -12z"/>
<path d="M3420 4580 c-15 -27 -12 -86 4 -99 17 -14 44 -17 70 -6 14 6 17 4 14
-11 -3 -16 -11 -19 -53 -16 l-49 3 18 -20 c25 -27 86 -28 109 -3 13 14 17 38
17 94 l0 75 -60 1 c-49 1 -62 -3 -70 -18z"/>
<path d="M450 4200 c0 -93 1 -100 20 -100 16 0 20 7 20 36 0 42 15 74 35 74
11 0 15 -13 15 -55 0 -52 1 -55 25 -55 24 0 25 3 25 59 0 70 -14 86 -65 78
-34 -6 -35 -5 -35 29 0 27 -4 34 -20 34 -19 0 -20 -7 -20 -100z"/>
<path d="M670 4243 c-51 -19 -68 -85 -30 -123 45 -45 120 -11 120 53 0 47 -49
85 -90 70z"/>
<path d="M975 4217 c-22 -31 -18 -64 9 -92 21 -21 29 -23 50 -15 23 8 26 7 26
-11 0 -19 -4 -21 -45 -15 -48 8 -61 -5 -26 -24 31 -16 79 -12 101 10 16 16 20
33 20 94 l0 74 -60 1 c-50 0 -62 -4 -75 -22z"/>
<path d="M3320 3916 c0 -34 0 -35 -36 -29 -45 7 -64 -13 -64 -67 0 -56 54 -92
88 -58 9 9 12 9 12 0 0 -7 9 -12 20 -12 19 0 20 7 20 100 0 93 -1 100 -20 100
-16 0 -20 -7 -20 -34z"/>
<path d="M3660 3916 c0 -34 0 -35 -36 -29 -44 7 -64 -13 -64 -62 0 -59 54 -97
88 -63 9 9 12 9 12 0 0 -7 9 -12 20 -12 19 0 20 7 20 100 0 93 -1 100 -20 100
-16 0 -20 -7 -20 -34z"/>
<path d="M4510 3850 c0 -93 1 -100 20 -100 13 0 20 7 20 19 0 31 16 33 34 6
10 -16 26 -25 41 -25 l25 0 -25 40 -26 41 21 29 21 30 -25 0 c-15 0 -30 -8
-36 -20 -18 -34 -30 -22 -30 30 0 43 -3 50 -20 50 -19 0 -20 -7 -20 -100z"/>
<path d="M5327 3943 c-4 -3 -7 -18 -7 -32 0 -23 -4 -26 -37 -26 -31 0 -40 -5
-51 -28 -28 -59 20 -129 68 -99 12 7 21 8 25 2 3 -6 15 -10 26 -10 18 0 19 8
19 100 0 90 -2 100 -18 100 -10 0 -22 -3 -25 -7z"/>
<path d="M336 3932 c-3 -5 5 -47 17 -93 19 -69 27 -85 45 -87 17 -3 23 4 32
40 19 74 22 75 38 16 13 -48 20 -58 37 -58 18 0 25 10 38 58 8 31 19 74 22 95
6 33 5 37 -13 37 -23 0 -28 -10 -38 -76 -8 -54 -13 -48 -34 34 -8 30 -16 42
-29 42 -15 0 -21 -13 -30 -61 -7 -34 -15 -58 -18 -55 -3 3 -11 29 -18 58 -11
50 -34 74 -49 50z"/>
<path d="M5680 3893 c-51 -19 -68 -85 -30 -123 43 -43 120 -11 120 49 0 48
-49 88 -90 74z"/>
<path d="M340 3500 c0 -92 1 -100 19 -100 17 0 20 8 23 53 3 44 6 52 23 52 17
0 20 -8 23 -52 3 -45 6 -53 23 -53 17 0 19 7 19 59 0 62 -19 98 -46 87 -8 -3
-21 -9 -29 -12 -12 -5 -15 2 -15 30 0 29 -4 36 -20 36 -19 0 -20 -7 -20 -100z"/>
<path d="M539 3535 c-48 -26 -44 -104 6 -127 59 -27 119 33 94 94 -7 16 -23
34 -36 39 -31 11 -32 11 -64 -6z"/>
<path d="M750 3540 c-8 -5 -27 -6 -42 -3 l-28 6 0 -72 c0 -64 2 -71 20 -71 17
0 20 7 20 39 0 48 8 71 25 71 17 0 25 -23 25 -71 0 -32 3 -39 19 -39 17 0 20
8 23 53 2 38 7 52 18 52 11 0 16 -14 20 -50 4 -42 8 -50 25 -50 30 0 34 92 6
126 -19 23 -21 23 -48 8 -24 -13 -32 -14 -49 -3 -12 8 -24 10 -34 4z"/>
<path d="M2028 2873 c0 -10 -1 -25 -2 -33 -1 -11 -10 -14 -34 -12 -39 4 -59
-9 -67 -48 -13 -59 45 -116 82 -79 8 8 13 8 17 0 4 -6 16 -11 27 -11 18 0 19
8 19 100 0 93 -1 100 -20 100 -12 0 -21 -7 -22 -17z"/>
<path d="M3050 2790 c0 -93 1 -100 20 -100 11 0 20 5 20 12 0 9 3 9 12 0 34
-34 88 4 88 63 0 49 -20 69 -64 62 -36 -6 -36 -5 -36 29 0 27 -4 34 -20 34
-19 0 -20 -7 -20 -100z"/>
<path d="M1513 2830 c-13 -5 -23 -16 -23 -25 0 -13 7 -15 35 -9 49 9 45 -12
-5 -26 -32 -9 -40 -15 -40 -34 0 -34 18 -44 78 -44 l52 0 0 58 c0 34 -5 62
-13 68 -19 16 -60 22 -84 12z"/>
<path d="M2312 2830 c-43 -18 -50 -81 -14 -122 21 -25 74 -23 97 2 22 24 24
86 3 106 -19 18 -59 25 -86 14z"/>
<path d="M3583 2830 c-13 -5 -23 -16 -23 -25 0 -13 7 -15 35 -9 45 8 48 -12 3
-24 -39 -10 -57 -35 -42 -59 8 -13 26 -18 68 -20 l56 -1 0 58 c0 34 -5 62 -13
68 -19 16 -60 22 -84 12z"/>
<path d="M1290 2440 c0 -92 2 -100 19 -100 11 0 21 6 24 13 3 9 7 9 20 -2 39
-32 81 7 79 72 -1 44 -20 60 -64 54 -38 -5 -38 -5 -38 29 0 27 -4 34 -20 34
-19 0 -20 -7 -20 -100z"/>
<path d="M3198 2528 c-3 -7 -4 -51 -4 -98 1 -80 2 -85 23 -88 20 -3 22 2 25
50 3 45 6 53 23 53 17 0 20 -8 23 -52 3 -45 6 -53 23 -53 17 0 19 7 19 58 0
68 -9 85 -45 85 -15 0 -31 -7 -36 -14 -6 -9 -9 0 -9 29 0 34 -3 42 -19 42 -10
0 -21 -6 -23 -12z"/>
<path d="M1827 2523 c-4 -3 -7 -46 -7 -95 0 -80 2 -88 19 -88 15 0 21 8 23 32
4 44 24 46 45 4 12 -26 23 -36 40 -36 27 0 28 2 8 40 -14 27 -14 32 1 55 32
49 -12 95 -90 95 -18 0 -36 -3 -39 -7z"/>
<path d="M3797 2523 c-19 -19 -5 -33 33 -33 22 0 40 -3 40 -7 0 -3 -18 -30
-40 -59 -58 -76 -55 -84 30 -84 63 0 70 2 70 20 0 17 -7 20 -40 20 -22 0 -40
2 -40 5 0 3 18 30 40 59 57 76 54 86 -23 86 -35 0 -67 -3 -70 -7z"/>
<path d="M690 2480 c-8 -5 -27 -6 -42 -3 l-28 6 0 -72 c0 -64 2 -71 20 -71 17
0 20 7 20 39 0 48 8 71 25 71 17 0 25 -23 25 -71 0 -32 3 -39 19 -39 17 0 20
8 23 53 2 38 7 52 18 52 11 0 16 -14 18 -52 3 -49 5 -53 28 -53 23 0 24 3 24
55 0 41 -5 60 -19 74 -19 19 -55 19 -67 0 -3 -5 -15 -2 -27 6 -14 9 -27 11
-37 5z"/>
<path d="M1188 2482 c-10 -2 -18 -8 -18 -14 0 -7 -4 -7 -13 0 -7 6 -38 11 -70
11 l-57 0 0 -70 c0 -67 1 -69 24 -69 23 0 25 4 28 53 2 38 7 52 18 52 11 0 16
-14 18 -52 3 -45 6 -53 23 -53 16 0 19 7 19 39 0 48 8 71 25 71 17 0 25 -23
25 -71 0 -32 3 -39 20 -39 18 0 20 7 20 58 0 74 -16 95 -62 84z"/>
<path d="M549 2170 c0 -5 0 -41 0 -80 0 -113 -1 -110 20 -110 17 0 20 8 23 53
3 44 6 52 23 52 17 0 20 -8 23 -52 3 -45 6 -53 23 -53 18 0 20 6 17 68 -3 65
-4 67 -31 70 -16 2 -35 -2 -43 -9 -12 -10 -14 -5 -14 30 0 34 -3 41 -20 41
-11 0 -20 -4 -21 -10z"/>
<path d="M2069 2168 c-1 -7 -1 -31 -1 -53 2 -140 1 -135 22 -135 15 0 20 7 20
25 0 14 4 25 8 25 5 0 15 -11 22 -25 8 -16 22 -25 37 -25 28 0 29 7 3 40 -25
32 -25 48 2 77 l21 23 -26 0 c-16 0 -33 -10 -46 -26 l-21 -27 0 57 c0 49 -2
56 -20 56 -11 0 -21 -6 -21 -12z"/>
<path d="M2577 2173 c-4 -3 -7 -48 -7 -100 0 -86 1 -93 20 -93 16 0 20 7 20
36 0 42 15 74 35 74 11 0 15 -13 15 -55 0 -52 1 -55 25 -55 24 0 25 3 25 53 0
71 -16 92 -64 84 -36 -6 -36 -5 -36 29 0 32 -16 45 -33 27z"/>
<path d="M3787 2173 c-4 -3 -7 -18 -7 -33 0 -24 -3 -26 -33 -22 -23 3 -38 -2
-47 -13 -18 -22 -19 -87 -1 -109 15 -18 52 -21 68 -5 8 8 13 8 17 0 4 -6 16
-11 27 -11 18 0 19 8 19 100 0 90 -2 100 -18 100 -10 0 -22 -3 -25 -7z"/>
<path d="M4700 2146 c0 -34 0 -35 -36 -29 -45 7 -64 -13 -64 -67 0 -56 54 -92
88 -58 9 9 12 9 12 0 0 -7 9 -12 20 -12 19 0 20 7 20 100 0 93 -1 100 -20 100
-16 0 -20 -7 -20 -34z"/>
<path d="M359 2141 c-31 -32 -38 -75 -17 -114 18 -34 39 -46 81 -47 69 0 108
73 76 143 -24 53 -96 62 -140 18z"/>
<path d="M3190 2095 c0 -91 17 -115 79 -115 60 0 83 34 79 119 -3 59 -5 66
-25 69 -21 3 -22 -1 -25 -70 -3 -70 -4 -73 -29 -76 -31 -4 -39 15 -39 96 0 45
-3 52 -20 52 -18 0 -20 -7 -20 -75z"/>
<path d="M5318 2164 c-5 -4 -8 -47 -8 -96 l0 -88 56 0 c30 0 64 5 75 10 23 13
26 62 4 80 -13 11 -13 14 0 27 18 18 19 24 1 48 -14 19 -114 34 -128 19z"/>
<path d="M3910 2123 c-51 -19 -68 -85 -30 -123 45 -45 120 -11 120 53 0 47
-49 85 -90 70z"/>
<path d="M4823 2120 c-44 -18 -57 -86 -23 -120 45 -45 120 -11 120 53 0 51
-50 86 -97 67z"/>
<path d="M1283 2106 c3 -7 11 -39 18 -70 12 -48 17 -56 37 -56 12 0 24 6 26
13 2 6 8 28 13 47 l10 35 13 -47 c10 -40 16 -48 36 -48 24 0 32 18 50 108 6
27 4 32 -13 32 -15 0 -22 -10 -30 -42 -10 -43 -15 -40 -28 15 -4 22 -11 28
-28 25 -17 -2 -24 -13 -31 -48 l-9 -45 -10 35 c-5 19 -11 41 -13 48 -2 6 -13
12 -25 12 -14 0 -19 -5 -16 -14z"/>
<path d="M5278 1814 c-5 -4 -8 -47 -8 -96 0 -80 2 -88 19 -88 14 0 21 8 23 27
3 24 9 29 42 34 21 3 42 12 47 20 14 22 11 75 -5 88 -17 14 -108 26 -118 15z"/>
<path d="M985 1768 c-28 -16 -35 -28 -35 -64 0 -49 20 -68 64 -61 32 5 37 3
34 -11 -3 -14 -13 -16 -51 -14 -26 2 -47 1 -47 -2 0 -17 37 -36 69 -36 58 0
71 22 71 113 0 70 -2 77 -20 77 -11 0 -20 -5 -20 -10 0 -6 -10 -4 -22 4 -18
11 -28 12 -43 4z"/>
<path d="M1262 1771 c-7 -4 -24 -6 -38 -3 -23 4 -24 3 -24 -57 0 -33 -1 -64
-2 -68 -2 -5 7 -9 19 -11 20 -3 22 2 25 50 2 39 7 53 18 53 11 0 16 -14 18
-52 3 -45 6 -53 23 -53 16 0 19 7 19 43 0 50 12 72 34 64 12 -5 16 -20 16 -57
0 -43 3 -50 20 -50 18 0 20 7 20 59 0 41 -5 65 -16 75 -19 20 -24 20 -52 0
-20 -14 -24 -14 -38 0 -18 18 -24 19 -42 7z"/>
<path d="M3313 1770 c-13 -5 -23 -16 -23 -25 0 -13 7 -15 35 -9 48 9 45 -10
-5 -25 -32 -9 -40 -17 -40 -35 0 -33 17 -43 78 -43 l52 -1 0 59 c0 48 -4 60
-22 73 -25 18 -42 19 -75 6z"/>
<path d="M3857 1760 c-53 -42 -24 -130 43 -130 40 0 70 31 70 73 0 61 -66 94
-113 57z"/>
<path d="M4368 1765 c-43 -24 -46 -99 -4 -127 20 -14 73 -8 89 10 32 36 22
102 -18 120 -32 15 -34 15 -67 -3z"/>
<path d="M4883 1770 c-13 -5 -23 -16 -23 -25 0 -13 7 -15 35 -9 48 9 45 -10
-5 -25 -32 -9 -40 -17 -40 -35 0 -33 17 -43 78 -43 l52 -1 0 59 c0 48 -4 60
-22 73 -25 18 -42 19 -75 6z"/>
<path d="M3050 1758 c0 -6 7 -38 16 -70 14 -49 20 -58 40 -58 19 0 24 7 30 38
10 58 17 61 29 12 9 -38 15 -45 35 -45 20 0 26 8 36 40 26 92 26 95 4 95 -13
0 -21 -9 -26 -27 -13 -65 -21 -70 -28 -20 -6 41 -10 47 -31 47 -20 0 -25 -7
-31 -35 -9 -50 -20 -51 -28 -5 -5 31 -11 40 -26 40 -11 0 -20 -5 -20 -12z"/>
<path d="M336 1337 c2 -111 1 -107 24 -107 16 0 20 7 20 37 0 29 3 34 12 25
34 -34 88 4 88 64 0 45 -25 63 -90 63 l-56 0 2 -82z"/>
<path d="M4367 1113 c-4 -3 -7 -18 -7 -32 0 -23 -4 -26 -37 -26 -31 0 -40 -5
-51 -28 -28 -59 20 -129 68 -99 12 7 21 8 25 2 3 -6 15 -10 26 -10 18 0 19 8
19 100 0 90 -2 100 -18 100 -10 0 -22 -3 -25 -7z"/>
<path d="M5864 1096 c-3 -14 -3 -29 0 -34 4 -6 -9 -8 -33 -5 -32 4 -41 2 -55
-18 -19 -28 -20 -49 -4 -84 13 -29 52 -43 72 -26 10 8 16 9 21 1 3 -5 15 -10
26 -10 18 0 20 6 17 97 -3 83 -6 98 -20 101 -12 2 -19 -5 -24 -22z"/>
<path d="M2572 1102 c-9 -6 -12 -33 -10 -93 3 -78 4 -84 26 -87 19 -3 22 1 22
27 0 29 3 31 34 31 58 0 88 67 46 105 -21 19 -98 31 -118 17z"/>
<path d="M480 1053 c-16 -11 -24 -12 -29 -4 -4 6 -29 10 -60 8 l-53 -2 0 -65
c0 -58 2 -65 20 -68 19 -3 21 3 24 50 2 41 7 54 21 56 14 3 17 -5 17 -52 0
-49 2 -56 20 -56 17 0 20 7 20 43 0 50 12 72 34 64 12 -5 16 -20 16 -57 0 -43
3 -50 20 -50 18 0 20 7 20 58 0 31 -4 62 -8 68 -13 20 -40 23 -62 7z"/>
<path d="M1230 1041 c-14 -27 -13 -74 3 -93 17 -21 38 -27 65 -17 19 8 23 6
20 -8 -3 -15 -12 -17 -51 -15 -26 2 -47 1 -47 -2 0 -17 37 -36 69 -36 58 0 71
22 71 113 0 70 -2 77 -20 77 -11 0 -20 -5 -20 -12 0 -9 -3 -9 -12 0 -19 19
-66 15 -78 -7z"/>
<path d="M3160 1041 c-14 -27 -13 -74 3 -93 17 -21 38 -27 65 -17 19 8 23 6
20 -8 -3 -14 -12 -17 -46 -15 -31 2 -42 -1 -42 -12 0 -30 87 -37 113 -8 13 14
17 38 17 95 0 70 -2 77 -20 77 -11 0 -20 -5 -20 -12 0 -9 -3 -9 -12 0 -19 19
-66 15 -78 -7z"/>
<path d="M4615 1037 c-22 -31 -18 -64 9 -92 21 -21 29 -23 50 -15 23 8 26 7
26 -11 0 -19 -4 -21 -45 -15 -25 4 -45 3 -45 -1 0 -36 87 -46 120 -13 16 16
20 33 20 94 l0 73 -60 1 c-50 1 -62 -2 -75 -21z"/>
<path d="M1610 320 c0 -93 1 -100 20 -100 16 0 20 7 20 38 0 43 23 83 39 67 5
-5 11 -30 13 -55 3 -38 7 -46 26 -48 21 -3 22 0 22 57 0 50 -4 62 -21 75 -16
10 -28 12 -46 5 -34 -13 -33 -13 -33 26 0 28 -4 35 -20 35 -19 0 -20 -7 -20
-100z"/>
<path d="M3197 403 c-3 -10 -4 -54 -3 -98 1 -75 2 -80 24 -83 18 -3 22 1 22
22 0 32 7 33 32 1 17 -22 65 -37 56 -17 -2 4 -12 24 -23 44 l-19 38 24 25 23
25 -23 0 c-13 0 -34 -10 -47 -22 l-23 -21 0 51 c0 45 -3 52 -19 52 -11 0 -22
-8 -24 -17z"/>
<path d="M3668 403 c-4 -16 -4 -70 1 -155 1 -21 6 -28 20 -28 17 0 20 8 23 53
3 44 6 52 23 52 17 0 20 -8 23 -52 3 -45 6 -53 23 -53 18 0 20 6 17 68 -3 65
-4 67 -31 70 -16 2 -35 -2 -43 -9 -12 -10 -14 -5 -14 30 0 33 -3 41 -19 41
-10 0 -21 -8 -23 -17z"/>
<path d="M5127 414 c-4 -4 -7 -19 -7 -34 0 -24 -3 -26 -34 -22 -54 6 -81 -45
-54 -103 13 -29 52 -43 72 -26 10 8 16 9 21 1 3 -5 15 -10 26 -10 18 0 20 6
17 97 -2 79 -6 98 -18 101 -9 1 -19 0 -23 -4z"/>
<path d="M2697 403 c-4 -3 -7 -46 -7 -95 l0 -88 49 0 c73 0 101 13 101 48 0
15 -5 33 -11 39 -8 8 -8 17 0 32 23 42 -17 71 -99 71 -14 0 -30 -3 -33 -7z"/>
<path d="M1468 355 c-37 -20 -46 -69 -21 -104 23 -30 75 -40 100 -20 44 37 33
110 -19 128 -17 6 -31 11 -32 11 -1 -1 -13 -7 -28 -15z"/>
<path d="M1830 363 c-51 -19 -68 -85 -30 -123 45 -45 120 -11 120 53 0 47 -49
85 -90 70z"/>
<path d="M2332 354 c-12 -8 -22 -11 -22 -5 0 6 -9 11 -20 11 -18 0 -20 -7 -20
-70 0 -63 2 -70 20 -70 17 0 20 7 20 43 0 50 12 72 34 64 12 -5 16 -20 16 -57
0 -43 3 -50 19 -50 17 0 20 8 23 52 2 41 7 54 21 56 14 3 17 -5 17 -53 0 -53
1 -56 23 -53 16 2 23 11 25 32 9 80 -27 132 -71 103 -19 -12 -25 -12 -43 -1
-17 12 -23 11 -42 -2z"/>
<path d="M335 323 c20 -111 63 -138 85 -55 l13 47 11 -45 c10 -38 16 -45 36
-45 24 0 30 11 54 108 6 26 4 28 -16 25 -17 -2 -24 -11 -26 -33 -6 -49 -21
-52 -28 -7 -6 36 -10 42 -30 42 -18 0 -25 -7 -30 -27 -12 -55 -17 -58 -26 -15
-7 33 -14 42 -30 42 -18 0 -19 -4 -13 -37z"/>
<path d="M3426 333 c24 -96 30 -108 54 -108 20 0 26 7 36 45 l11 45 13 -47
c10 -40 16 -48 36 -48 24 0 32 18 50 108 6 28 4 32 -14 32 -17 0 -22 -8 -28
-47 -7 -50 -15 -45 -29 20 -9 44 -45 33 -60 -18 l-12 -40 -7 30 c-13 52 -15
55 -36 55 -17 0 -19 -4 -14 -27z"/>
<path d="M4230 348 c0 -6 7 -38 16 -70 14 -49 20 -58 39 -58 19 0 25 9 35 48
l13 47 10 -35 c5 -19 11 -41 13 -48 2 -7 14 -12 25 -10 16 2 25 15 34 45 27
90 27 93 5 93 -13 0 -21 -9 -26 -27 -13 -65 -21 -70 -28 -20 -6 41 -10 47 -31
47 -19 0 -26 -7 -31 -27 -12 -55 -17 -58 -26 -15 -7 32 -14 42 -29 42 -10 0
-19 -5 -19 -12z"/>
</g>
</svg>
